<?xml version="1.0" standalone="no"?>
<!DOCTYPE svg PUBLIC "-//W3C//DTD SVG 20010904//EN"
 "http://www.w3.org/TR/2001/REC-SVG-20010904/DTD/svg10.dtd">
<svg version="1.0" xmlns="http://www.w3.org/2000/svg"
 width="512.000000pt" height="512.000000pt" viewBox="0 0 512.000000 512.000000"
 preserveAspectRatio="xMidYMid meet">
<metadata>
Created by potrace 1.11, written by Peter Selinger 2001-2013
</metadata>
<g transform="translate(0.000000,512.000000) scale(0.100000,-0.100000)"
fill="#000000" stroke="none">
<path d="M0 4435 c0 -417 4 -685 9 -685 5 0 12 -8 15 -18 6 -17 26 -188 46
-387 11 -101 12 -417 2 -430 -4 -5 -16 -15 -27 -21 -15 -9 -19 -20 -17 -48 2
-25 -2 -38 -13 -42 -13 -6 -15 -115 -15 -1021 l0 -1015 28 6 c79 17 148 18
186 2 21 -9 65 -16 96 -16 48 0 64 -5 88 -25 17 -14 36 -25 43 -25 8 0 29 -9
47 -20 18 -11 65 -24 105 -29 40 -5 117 -17 172 -25 55 -9 136 -15 180 -14
l80 3 5 55 c7 76 13 83 66 75 l43 -6 10 38 c6 21 11 44 11 52 0 7 7 34 15 60
8 25 17 59 20 74 l6 29 100 -4 c97 -3 102 -4 122 -31 51 -66 104 -121 138
-142 60 -39 253 -107 369 -130 19 -4 46 -16 59 -26 13 -11 36 -19 50 -19 39 0
64 -21 59 -51 l-3 -24 -249 0 c-173 0 -250 -3 -253 -11 -5 -15 102 -60 174
-73 59 -11 361 -26 512 -26 77 1 85 2 94 23 8 17 19 22 46 23 20 0 68 3 106 5
86 7 89 7 300 1 227 -7 215 -5 233 -37 10 -17 28 -31 46 -34 16 -4 38 -13 47
-22 10 -9 36 -20 58 -25 22 -5 66 -24 98 -43 32 -19 76 -39 98 -45 22 -6 49
-17 60 -25 11 -9 27 -16 35 -16 31 0 282 -136 291 -157 6 -12 65 -52 95 -63
14 -6 28 -19 31 -30 5 -20 15 -20 604 -20 l599 0 0 2560 0 2560 -2560 0 -2560
0 0 -685z m2475 219 c353 -9 586 -36 735 -85 14 -4 41 -11 60 -15 19 -4 51
-15 70 -25 19 -11 39 -19 44 -19 5 0 17 -6 25 -14 9 -8 43 -29 75 -46 33 -17
66 -40 73 -50 8 -11 19 -20 25 -20 6 0 35 -21 65 -46 56 -48 213 -272 213
-304 0 -9 9 -29 20 -43 11 -14 20 -28 20 -33 0 -4 15 -30 34 -58 19 -29 39
-74 44 -101 35 -174 51 -233 65 -255 9 -14 49 -48 89 -75 108 -74 174 -147
197 -220 11 -33 23 -87 26 -120 3 -33 13 -79 21 -102 15 -41 63 -93 87 -93 7
-1 28 -15 48 -33 97 -87 216 -316 235 -452 21 -149 2 -520 -31 -603 -10 -25
-29 -48 -48 -60 -23 -13 -45 -44 -80 -114 -26 -52 -47 -101 -47 -109 0 -14
-56 -160 -91 -237 -10 -23 -19 -48 -19 -55 0 -6 -11 -35 -24 -64 -37 -79 -75
-94 -213 -88 -149 6 -309 21 -323 30 -15 9 -9 118 14 240 8 44 20 114 26 155
18 117 22 134 33 148 9 11 14 10 26 -7 9 -11 41 -30 72 -41 l57 -19 63 21 c88
28 125 66 133 132 20 159 19 181 -8 212 -29 33 -41 25 -51 -36 -9 -52 -29 -73
-72 -75 -21 -2 -68 -6 -104 -10 -61 -7 -67 -6 -82 15 -12 17 -13 29 -5 51 6
17 9 118 6 252 -3 196 -5 226 -21 251 -17 25 -21 27 -34 13 -19 -18 -29 -98
-43 -322 -8 -121 -15 -178 -27 -200 -11 -21 -17 -61 -19 -135 -2 -126 -13
-160 -49 -160 -14 0 -40 8 -58 17 -24 13 -58 18 -133 18 -55 1 -106 5 -114 10
-10 6 -12 50 -7 234 5 191 9 237 27 296 36 119 50 142 124 208 86 78 206 177
215 177 10 0 61 86 61 103 0 25 -40 57 -71 57 -21 0 -38 -14 -80 -65 -29 -36
-55 -65 -58 -65 -3 0 -43 -36 -89 -79 -85 -82 -111 -98 -136 -84 -49 27 -201
185 -232 240 -36 64 -58 79 -95 68 -19 -6 -21 -13 -17 -55 6 -61 32 -95 185
-246 68 -66 123 -125 123 -131 0 -6 -6 -26 -14 -44 -17 -43 -40 -416 -30 -505
5 -54 4 -68 -11 -84 -23 -25 -101 -27 -184 -4 -65 18 -95 15 -134 -17 -32 -25
-34 -49 -6 -75 21 -19 96 -27 230 -24 60 1 89 -15 89 -49 0 -48 54 -54 96 -10
l29 31 95 -6 c114 -8 168 -19 188 -40 18 -18 17 -90 -3 -191 -15 -73 -29 -150
-46 -250 -20 -115 -27 -140 -43 -177 -9 -21 -16 -51 -16 -68 0 -20 -6 -33 -17
-37 -30 -12 -414 14 -463 31 -44 15 -154 32 -278 43 -67 6 -92 25 -92 70 0 25
-27 89 -49 116 -16 20 -46 23 -57 5 -12 -19 -5 -68 11 -91 8 -12 15 -31 15
-44 0 -21 -2 -22 -92 -17 -50 2 -97 9 -105 15 -9 8 -13 39 -13 101 0 49 -4 97
-10 107 -13 25 -37 33 -61 21 -18 -10 -19 -19 -13 -108 5 -77 4 -100 -7 -108
-19 -15 -221 7 -269 29 -22 9 -61 15 -100 15 -48 -1 -76 4 -107 20 -23 12 -58
22 -76 22 -19 0 -52 6 -74 14 -22 8 -83 19 -134 25 -52 7 -114 18 -139 25 -25
8 -76 17 -114 20 -49 4 -75 11 -90 25 -13 12 -39 21 -66 23 -44 3 -45 4 -48
40 -6 72 29 95 101 65 18 -8 50 -17 72 -21 22 -4 67 -16 100 -26 71 -23 237
-40 388 -40 97 0 119 4 215 35 90 30 113 42 143 75 37 40 113 166 142 235 41
98 77 263 77 355 0 21 6 69 14 107 25 119 -2 516 -45 673 -41 147 -93 250
-127 250 -25 0 -42 -20 -42 -49 0 -25 30 -113 50 -149 46 -81 71 -247 85 -556
7 -154 -44 -477 -89 -563 -9 -18 -16 -39 -16 -47 0 -8 -6 -21 -13 -28 -8 -7
-22 -30 -32 -51 -18 -39 -101 -127 -118 -127 -6 0 -35 -12 -66 -26 l-56 -27
-205 5 c-129 3 -214 10 -228 17 -12 6 -48 16 -79 22 -54 9 -156 37 -228 61
-16 5 -66 18 -110 29 -44 11 -100 26 -125 34 -25 8 -80 19 -123 24 -88 10
-234 75 -301 133 -35 31 -40 42 -62 138 -13 58 -24 116 -24 130 0 14 -9 72
-19 130 -39 206 -43 268 -38 505 3 127 9 258 12 293 4 40 2 76 -5 95 -26 70
-29 105 -19 227 5 69 14 141 19 160 5 19 23 107 40 195 31 159 57 227 98 257
9 7 35 38 58 68 23 30 59 67 80 81 113 75 157 101 195 114 23 9 47 19 53 24
36 29 297 112 371 118 87 7 108 18 133 69 12 24 22 52 22 60 0 29 79 149 129
197 103 99 245 181 341 196 35 6 65 13 69 17 3 3 53 3 111 0 58 -4 195 -9 305
-12z"/>
<path d="M2438 3240 c-24 -15 -23 -55 2 -80 17 -17 32 -19 122 -18 78 1 112
-3 141 -16 21 -9 78 -20 126 -25 48 -4 93 -11 98 -14 6 -4 58 -9 116 -12 101
-6 106 -5 121 17 22 32 20 52 -11 88 -25 30 -30 32 -72 26 -25 -3 -71 -1 -101
5 -155 30 -510 49 -542 29z"/>
<path d="M3557 3123 c-22 -25 -22 -68 1 -91 14 -14 41 -21 107 -26 87 -6 168
-28 234 -62 45 -23 65 -10 69 44 4 48 -11 82 -36 82 -9 0 -30 9 -47 20 -20 13
-48 20 -85 21 -52 1 -126 10 -195 24 -23 5 -35 2 -48 -12z"/>
<path d="M1651 2457 c-14 -6 -26 -17 -28 -24 -8 -22 42 -60 86 -68 91 -15 127
-151 69 -261 -32 -61 -65 -80 -114 -64 -29 10 -48 8 -114 -9 -64 -18 -83 -19
-104 -10 -14 7 -26 16 -26 20 0 8 -59 46 -100 65 -34 15 -52 38 -89 109 -40
75 -50 89 -80 104 -26 14 -41 3 -41 -32 0 -20 74 -174 96 -198 8 -8 14 -23 14
-31 0 -24 84 -131 138 -176 26 -22 71 -52 101 -67 47 -23 64 -27 120 -23 54 3
73 9 104 32 29 23 37 35 37 61 0 25 7 38 32 56 77 58 113 104 136 175 27 87
28 138 2 207 -42 112 -156 177 -239 134z"/>
<path d="M642 1828 c-17 -17 -15 -53 7 -123 27 -87 42 -116 60 -113 41 8 9
240 -34 246 -11 1 -26 -3 -33 -10z"/>
<path d="M834 1805 c-10 -39 4 -93 29 -110 28 -20 34 -19 47 6 9 16 7 32 -11
75 -25 60 -54 73 -65 29z"/>
</g>
</svg>
